<?xml version="1.0" encoding="UTF-8"?>
<!DOCTYPE svg PUBLIC "-//W3C//DTD SVG 1.1//EN" "http://www.w3.org/Graphics/SVG/1.1/DTD/svg11.dtd">
<svg xmlns="http://www.w3.org/2000/svg" version="1.1" width="512px" height="512px" style="shape-rendering:geometricPrecision; text-rendering:geometricPrecision; image-rendering:optimizeQuality; fill-rule:evenodd; clip-rule:evenodd" xmlns:xlink="http://www.w3.org/1999/xlink">
<g><path style="opacity:0.983" fill="#f4505d" d="M 232.5,-0.5 C 247.5,-0.5 262.5,-0.5 277.5,-0.5C 297.109,1.56386 316.443,5.56386 335.5,11.5C 282.167,12.8333 228.833,12.8333 175.5,11.5C 194.242,5.68621 213.242,1.68621 232.5,-0.5 Z"/></g>
<g><path style="opacity:0.982" fill="#f25164" d="M 175.5,11.5 C 228.833,12.8333 282.167,12.8333 335.5,11.5C 349.817,16.1616 363.484,22.1616 376.5,29.5C 361.833,29.5 347.167,29.5 332.5,29.5C 280.683,13.1868 229.016,13.5202 177.5,30.5C 163.343,29.5041 149.01,29.1707 134.5,29.5C 147.516,22.1616 161.183,16.1616 175.5,11.5 Z"/></g>
<g><path style="opacity:0.966" fill="#ee546f" d="M 134.5,29.5 C 149.01,29.1707 163.343,29.5041 177.5,30.5C 161.592,35.6217 146.592,42.6217 132.5,51.5C 122.5,50.8333 112.5,50.1667 102.5,49.5C 112.522,41.8212 123.189,35.1546 134.5,29.5 Z"/></g>
<g><path style="opacity:0.968" fill="#ef536d" d="M 332.5,29.5 C 347.167,29.5 361.833,29.5 376.5,29.5C 382.367,32.5961 388.033,35.9294 393.5,39.5C 382.346,40.4948 371.012,40.8281 359.5,40.5C 350.344,37.0088 341.344,33.3422 332.5,29.5 Z"/></g>
<g><path style="opacity:0.97" fill="#eb5677" d="M 393.5,39.5 C 404.62,45.7242 414.62,53.3908 423.5,62.5C 415.167,63.1667 406.833,63.8333 398.5,64.5C 385.966,55.7334 372.966,47.7334 359.5,40.5C 371.012,40.8281 382.346,40.4948 393.5,39.5 Z"/></g>
<g><path style="opacity:0.974" fill="#e9577e" d="M 102.5,49.5 C 112.5,50.1667 122.5,50.8333 132.5,51.5C 121.611,58.0565 111.278,65.3898 101.5,73.5C 92.9832,73.8261 84.6499,73.4927 76.5,72.5C 84.5471,64.1188 93.2138,56.4521 102.5,49.5 Z"/></g>
<g><path style="opacity:0.956" fill="#e75984" d="M 423.5,62.5 C 431.132,68.4643 438.132,75.131 444.5,82.5C 436.684,83.4924 428.684,83.8257 420.5,83.5C 413.141,77.1375 405.808,70.8042 398.5,64.5C 406.833,63.8333 415.167,63.1667 423.5,62.5 Z"/></g>
<g><path style="opacity:0.973" fill="#e45a8c" d="M 76.5,72.5 C 84.6499,73.4927 92.9832,73.8261 101.5,73.5C 90.4948,83.5054 80.1615,94.172 70.5,105.5C 63.2537,104.536 55.9204,104.203 48.5,104.5C 56.429,92.6691 65.7624,82.0024 76.5,72.5 Z"/></g>
<g><path style="opacity:0.958" fill="#e35b90" d="M 444.5,82.5 C 450.968,89.4263 456.968,96.7596 462.5,104.5C 455.08,104.203 447.746,104.536 440.5,105.5C 434.203,97.8675 427.536,90.5341 420.5,83.5C 428.684,83.8257 436.684,83.4924 444.5,82.5 Z"/></g>
<g><path style="opacity:0.966" fill="#de5e9d" d="M 48.5,104.5 C 55.9204,104.203 63.2537,104.536 70.5,105.5C 64.7798,112.553 59.4465,119.887 54.5,127.5C 47.4163,128.126 40.7496,127.459 34.5,125.5C 38.4356,117.947 43.1023,110.947 48.5,104.5 Z"/></g>
<g><path style="opacity:0.957" fill="#df5e9d" d="M 462.5,104.5 C 468.233,111.618 473.233,119.284 477.5,127.5C 470.5,127.5 463.5,127.5 456.5,127.5C 451.553,119.887 446.22,112.553 440.5,105.5C 447.746,104.536 455.08,104.203 462.5,104.5 Z"/></g>
<g><path style="opacity:0.96" fill="#dc60a6" d="M 34.5,125.5 C 40.7496,127.459 47.4163,128.126 54.5,127.5C 51.4864,132.203 48.4864,136.87 45.5,141.5C 38.9779,141.823 32.6446,141.49 26.5,140.5C 28.4068,135.016 31.0734,130.016 34.5,125.5 Z"/></g>
<g><path style="opacity:0.994" fill="#da61a9" d="M 456.5,127.5 C 463.5,127.5 470.5,127.5 477.5,127.5C 481.93,134.024 485.597,141.024 488.5,148.5C 481.833,148.5 475.167,148.5 468.5,148.5C 464.753,141.337 460.753,134.337 456.5,127.5 Z"/></g>
<g><path style="opacity:0.971" fill="#d863b0" d="M 26.5,140.5 C 32.6446,141.49 38.9779,141.823 45.5,141.5C 42.7365,148.024 39.7365,154.357 36.5,160.5C 30.1667,160.5 23.8333,160.5 17.5,160.5C 19.7418,153.421 22.7418,146.754 26.5,140.5 Z"/></g>
<g><path style="opacity:0.97" fill="#d763b4" d="M 468.5,148.5 C 475.167,148.5 481.833,148.5 488.5,148.5C 492.05,155.601 495.05,162.935 497.5,170.5C 491.167,170.5 484.833,170.5 478.5,170.5C 475.202,163.231 471.868,155.898 468.5,148.5 Z"/></g>
<g><path style="opacity:0.979" fill="#d664b7" d="M 216.5,172.5 C 208.833,172.5 201.167,172.5 193.5,172.5C 200.622,163.54 207.955,154.707 215.5,146C 223.419,142.267 228.419,144.601 230.5,153C 230.204,154.888 229.704,156.722 229,158.5C 224.968,163.361 220.801,168.028 216.5,172.5 Z"/></g>
<g><path style="opacity:0.975" fill="#d465bc" d="M 17.5,160.5 C 23.8333,160.5 30.1667,160.5 36.5,160.5C 34.0688,167.678 31.4021,174.678 28.5,181.5C 21.8787,180.94 15.5454,181.607 9.5,183.5C 11.3976,175.47 14.0643,167.803 17.5,160.5 Z"/></g>
<g><path style="opacity:0.977" fill="#d366be" d="M 478.5,170.5 C 484.833,170.5 491.167,170.5 497.5,170.5C 498.899,173.699 499.899,177.032 500.5,180.5C 494.69,181.49 488.69,181.823 482.5,181.5C 480.796,178.061 479.462,174.395 478.5,170.5 Z"/></g>
<g><path style="opacity:0.968" fill="#d266c2" d="M 193.5,172.5 C 201.167,172.5 208.833,172.5 216.5,172.5C 211.182,179.814 205.516,186.814 199.5,193.5C 192.576,191.537 185.243,190.87 177.5,191.5C 182.863,185.142 188.196,178.808 193.5,172.5 Z"/></g>
<g><path style="opacity:0.962" fill="#d068c8" d="M 28.5,181.5 C 26.8695,188.711 24.8695,195.711 22.5,202.5C 16.5,202.5 10.5,202.5 4.5,202.5C 5.70266,196.022 7.36932,189.688 9.5,183.5C 15.5454,181.607 21.8787,180.94 28.5,181.5 Z"/></g>
<g><path style="opacity:0.976" fill="#d068c8" d="M 500.5,180.5 C 503.102,187.564 505.102,194.897 506.5,202.5C 500.167,202.5 493.833,202.5 487.5,202.5C 486.04,195.452 484.373,188.452 482.5,181.5C 488.69,181.823 494.69,181.49 500.5,180.5 Z"/></g>
<g><path style="opacity:0.983" fill="#ce69cf" d="M 177.5,191.5 C 185.243,190.87 192.576,191.537 199.5,193.5C 193.727,200.726 187.727,207.726 181.5,214.5C 173.981,214.825 166.648,214.492 159.5,213.5C 165.152,205.851 171.152,198.518 177.5,191.5 Z"/></g>
<g><path style="opacity:0.962" fill="#cc6bd3" d="M 487.5,202.5 C 493.833,202.5 500.167,202.5 506.5,202.5C 508.041,209.411 509.041,216.411 509.5,223.5C 503.833,224.167 498.167,224.833 492.5,225.5C 491.166,217.86 489.5,210.193 487.5,202.5 Z"/></g>
<g><path style="opacity:0.978" fill="#cc6bd3" d="M 4.5,202.5 C 10.5,202.5 16.5,202.5 22.5,202.5C 21.2832,209.801 20.2832,217.135 19.5,224.5C 13.0738,225.12 7.07381,224.453 1.5,222.5C 1.85159,215.725 2.85159,209.058 4.5,202.5 Z"/></g>
<g><path style="opacity:0.967" fill="#c96cdc" d="M 159.5,213.5 C 166.648,214.492 173.981,214.825 181.5,214.5C 174.846,223.151 167.846,231.484 160.5,239.5C 152.981,239.825 145.648,239.492 138.5,238.5C 145.154,229.849 152.154,221.516 159.5,213.5 Z"/></g>
<g><path style="opacity:0.962" fill="#c76ee2" d="M 509.5,223.5 C 510.167,226.5 510.833,229.5 511.5,232.5C 511.5,237.833 511.5,243.167 511.5,248.5C 505.291,246.866 499.291,247.199 493.5,249.5C 493.432,241.486 493.099,233.486 492.5,225.5C 498.167,224.833 503.833,224.167 509.5,223.5 Z"/></g>
<g><path style="opacity:0.967" fill="#c76ee2" d="M 1.5,222.5 C 7.07381,224.453 13.0738,225.12 19.5,224.5C 18.1163,231.385 17.4497,238.385 17.5,245.5C 11.7921,247.386 5.79206,248.053 -0.5,247.5C -0.5,242.5 -0.5,237.5 -0.5,232.5C 0.166667,229.167 0.833333,225.833 1.5,222.5 Z"/></g>
<g><path style="opacity:0.997" fill="#c570e9" d="M 138.5,238.5 C 145.648,239.492 152.981,239.825 160.5,239.5C 159.457,242.056 157.79,244.223 155.5,246C 229.833,246.333 304.167,246.667 378.5,247C 380.667,247.833 382.167,249.333 383,251.5C 383.801,254.367 383.634,257.034 382.5,259.5C 297.833,259.5 213.167,259.5 128.5,259.5C 127.366,257.034 127.199,254.367 128,251.5C 130.985,246.689 134.485,242.356 138.5,238.5 Z"/></g>
<g><path style="opacity:0.981" fill="#c271eb" d="M 17.5,245.5 C 17.5,251.833 17.5,258.167 17.5,264.5C 11.5907,265.455 5.59074,265.789 -0.5,265.5C -0.5,259.5 -0.5,253.5 -0.5,247.5C 5.79206,248.053 11.7921,247.386 17.5,245.5 Z"/></g>
<g><path style="opacity:0.981" fill="#c271eb" d="M 511.5,248.5 C 511.5,253.833 511.5,259.167 511.5,264.5C 505.591,265.455 499.591,265.789 493.5,265.5C 493.5,260.167 493.5,254.833 493.5,249.5C 499.291,247.199 505.291,246.866 511.5,248.5 Z"/></g>
<g><path style="opacity:0.915" fill="#be73ec" d="M 128.5,259.5 C 213.167,259.5 297.833,259.5 382.5,259.5C 382.084,261.752 380.751,263.252 378.5,264C 304.167,264.333 229.833,264.667 155.5,265C 157.79,266.777 159.457,268.944 160.5,271.5C 152.833,271.5 145.167,271.5 137.5,271.5C 133.738,268.071 130.738,264.071 128.5,259.5 Z"/></g>
<g><path style="opacity:0.982" fill="#b478ed" d="M 17.5,264.5 C 17.2834,269.23 17.6167,273.897 18.5,278.5C 12.5,278.5 6.5,278.5 0.5,278.5C 0.166667,278.5 -0.166667,278.5 -0.5,278.5C -0.5,274.167 -0.5,269.833 -0.5,265.5C 5.59074,265.789 11.5907,265.455 17.5,264.5 Z"/></g>
<g><path style="opacity:0.977" fill="#b477ed" d="M 511.5,264.5 C 511.5,269.167 511.5,273.833 511.5,278.5C 511.167,278.5 510.833,278.5 510.5,278.5C 504.208,279.053 498.208,278.386 492.5,276.5C 493.423,272.936 493.756,269.269 493.5,265.5C 499.591,265.789 505.591,265.455 511.5,264.5 Z"/></g>
<g><path style="opacity:0.967" fill="#ac7bed" d="M 137.5,271.5 C 145.167,271.5 152.833,271.5 160.5,271.5C 166.887,277.554 172.554,284.221 177.5,291.5C 169.445,291.77 161.445,291.437 153.5,290.5C 148.196,284.192 142.863,277.858 137.5,271.5 Z"/></g>
<g><path style="opacity:0.979" fill="#a77dec" d="M 0.5,278.5 C 6.5,278.5 12.5,278.5 18.5,278.5C 18.7395,282.842 19.0728,287.176 19.5,291.5C 13.5,291.5 7.5,291.5 1.5,291.5C 0.800493,287.202 0.46716,282.869 0.5,278.5 Z"/></g>
<g><path style="opacity:0.972" fill="#a77dec" d="M 492.5,276.5 C 498.208,278.386 504.208,279.053 510.5,278.5C 510.46,283.193 510.127,287.859 509.5,292.5C 503.591,291.545 497.591,291.211 491.5,291.5C 492.053,286.518 492.387,281.518 492.5,276.5 Z"/></g>
<g><path style="opacity:0.955" fill="#9a83ec" d="M 1.5,291.5 C 7.5,291.5 13.5,291.5 19.5,291.5C 20.3927,295.856 21.3927,300.189 22.5,304.5C 16.2564,305.458 9.92302,305.791 3.5,305.5C 2.83333,300.833 2.16667,296.167 1.5,291.5 Z"/></g>
<g><path style="opacity:0.962" fill="#9b84ec" d="M 153.5,290.5 C 161.445,291.437 169.445,291.77 177.5,291.5C 181.845,295.847 185.845,300.514 189.5,305.5C 182.141,305.558 174.475,305.558 166.5,305.5C 161.822,300.821 157.489,295.821 153.5,290.5 Z"/></g>
<g><path style="opacity:0.969" fill="#9a84ec" d="M 491.5,291.5 C 497.591,291.211 503.591,291.545 509.5,292.5C 508.725,296.814 508.059,301.147 507.5,305.5C 501.167,305.5 494.833,305.5 488.5,305.5C 489.288,300.766 490.288,296.1 491.5,291.5 Z"/></g>
<g><path style="opacity:0.965" fill="#8e89ec" d="M 22.5,304.5 C 23.0333,308.965 24.0333,313.298 25.5,317.5C 19.077,317.791 12.7436,317.458 6.5,316.5C 5.37318,312.865 4.37318,309.198 3.5,305.5C 9.92302,305.791 16.2564,305.458 22.5,304.5 Z"/></g>
<g><path style="opacity:0.951" fill="#8d8beb" d="M 166.5,305.5 C 174.475,305.558 182.141,305.558 189.5,305.5C 194.47,311.475 199.47,317.475 204.5,323.5C 197.018,324.492 189.352,324.825 181.5,324.5C 176.095,318.435 171.095,312.102 166.5,305.5 Z"/></g>
<g><path style="opacity:0.944" fill="#8e89ec" d="M 488.5,305.5 C 494.833,305.5 501.167,305.5 507.5,305.5C 506.461,310.334 505.128,315.001 503.5,319.5C 497.926,317.547 491.926,316.88 485.5,317.5C 486.497,313.521 487.497,309.521 488.5,305.5 Z"/></g>
<g><path style="opacity:0.957" fill="#818feb" d="M 6.5,316.5 C 12.7436,317.458 19.077,317.791 25.5,317.5C 26.6306,322.225 27.964,326.892 29.5,331.5C 23.0738,330.88 17.0738,331.547 11.5,333.5C 9.26113,328.106 7.59447,322.439 6.5,316.5 Z"/></g>
<g><path style="opacity:0.96" fill="#828eeb" d="M 485.5,317.5 C 491.926,316.88 497.926,317.547 503.5,319.5C 502.707,323.88 501.707,328.213 500.5,332.5C 494.256,331.542 487.923,331.209 481.5,331.5C 483.036,326.892 484.369,322.225 485.5,317.5 Z"/></g>
<g><path style="opacity:0.966" fill="#7893ea" d="M 29.5,331.5 C 30.8319,335.162 32.1652,338.828 33.5,342.5C 27.1667,342.5 20.8333,342.5 14.5,342.5C 12.9281,339.785 11.9281,336.785 11.5,333.5C 17.0738,331.547 23.0738,330.88 29.5,331.5 Z"/></g>
<g><path style="opacity:0.962" fill="#7a93eb" d="M 204.5,323.5 C 209.47,329.475 214.47,335.475 219.5,341.5C 211.92,342.466 204.253,342.799 196.5,342.5C 191.5,336.5 186.5,330.5 181.5,324.5C 189.352,324.825 197.018,324.492 204.5,323.5 Z"/></g>
<g><path style="opacity:0.971" fill="#7494eb" d="M 481.5,331.5 C 487.923,331.209 494.256,331.542 500.5,332.5C 498.833,337.167 497.167,341.833 495.5,346.5C 488.978,346.823 482.645,346.49 476.5,345.5C 478.168,340.828 479.835,336.162 481.5,331.5 Z"/></g>
<g><path style="opacity:0.977" fill="#6c98eb" d="M 14.5,342.5 C 20.8333,342.5 27.1667,342.5 33.5,342.5C 36.1667,348.5 38.8333,354.5 41.5,360.5C 35.0662,361.13 28.7329,361.797 22.5,362.5C 19.2634,356.136 16.5967,349.47 14.5,342.5 Z"/></g>
<g><path style="opacity:0.953" fill="#699beb" d="M 219.5,341.5 C 222.802,344.974 225.968,348.641 229,352.5C 232.366,360.434 229.866,365.434 221.5,367.5C 219.459,366.764 217.459,365.931 215.5,365C 209.278,357.376 202.944,349.876 196.5,342.5C 204.253,342.799 211.92,342.466 219.5,341.5 Z"/></g>
<g><path style="opacity:0.973" fill="#699aeb" d="M 476.5,345.5 C 482.645,346.49 488.978,346.823 495.5,346.5C 493.501,351.495 491.501,356.495 489.5,361.5C 482.833,361.5 476.167,361.5 469.5,361.5C 471.322,355.864 473.655,350.531 476.5,345.5 Z"/></g>
<g><path style="opacity:0.966" fill="#5ca0ea" d="M 469.5,361.5 C 476.167,361.5 482.833,361.5 489.5,361.5C 486.738,367.36 483.738,373.026 480.5,378.5C 473.808,378.436 466.808,378.436 459.5,378.5C 462.596,372.633 465.929,366.967 469.5,361.5 Z"/></g>
<g><path style="opacity:0.973" fill="#5aa0ea" d="M 41.5,360.5 C 45.9132,368.995 50.5799,377.328 55.5,385.5C 48.5,385.5 41.5,385.5 34.5,385.5C 29.7387,378.314 25.7387,370.647 22.5,362.5C 28.7329,361.797 35.0662,361.13 41.5,360.5 Z"/></g>
<g><path style="opacity:0.963" fill="#4fa6ea" d="M 480.5,378.5 C 477.419,384.331 474.085,389.998 470.5,395.5C 462.802,396.134 455.135,396.801 447.5,397.5C 451.473,391.184 455.473,384.851 459.5,378.5C 466.808,378.436 473.808,378.436 480.5,378.5 Z"/></g>
<g><path style="opacity:0.954" fill="#46aaea" d="M 34.5,385.5 C 41.5,385.5 48.5,385.5 55.5,385.5C 62.1596,394.495 68.8263,403.495 75.5,412.5C 68.5,413.167 61.5,413.833 54.5,414.5C 47.0856,405.407 40.419,395.74 34.5,385.5 Z"/></g>
<g><path style="opacity:0.963" fill="#3eadea" d="M 470.5,395.5 C 464.269,405.399 457.269,414.732 449.5,423.5C 441.316,423.826 433.316,423.492 425.5,422.5C 432.862,414.141 440.196,405.808 447.5,397.5C 455.135,396.801 462.802,396.134 470.5,395.5 Z"/></g>
<g><path style="opacity:0.964" fill="#37b1ea" d="M 75.5,412.5 C 83.1667,419.5 90.5,426.833 97.5,434.5C 89.3159,434.174 81.3159,434.508 73.5,435.5C 66.0859,429.422 59.7526,422.422 54.5,414.5C 61.5,413.833 68.5,413.167 75.5,412.5 Z"/></g>
<g><path style="opacity:0.949" fill="#30b4e9" d="M 425.5,422.5 C 433.316,423.492 441.316,423.826 449.5,423.5C 442.833,430.833 435.833,437.833 428.5,444.5C 419.318,444.827 410.318,444.493 401.5,443.5C 410.092,437.245 418.092,430.245 425.5,422.5 Z"/></g>
<g><path style="opacity:0.962" fill="#2ab7ea" d="M 97.5,434.5 C 107.191,441.865 116.857,449.198 126.5,456.5C 116.652,456.173 106.986,456.506 97.5,457.5C 88.5746,451.244 80.5746,443.911 73.5,435.5C 81.3159,434.508 89.3159,434.174 97.5,434.5 Z"/></g>
<g><path style="opacity:0.966" fill="#25b9ea" d="M 401.5,443.5 C 410.318,444.493 419.318,444.827 428.5,444.5C 420.033,452.97 410.7,460.304 400.5,466.5C 389.321,466.828 378.321,466.495 367.5,465.5C 379.514,459.163 390.848,451.83 401.5,443.5 Z"/></g>
<g><path style="opacity:0.966" fill="#1ebce9" d="M 126.5,456.5 C 144.849,467.675 164.182,476.675 184.5,483.5C 170.01,484.496 155.343,484.829 140.5,484.5C 124.979,477.248 110.646,468.248 97.5,457.5C 106.986,456.506 116.652,456.173 126.5,456.5 Z"/></g>
<g><path style="opacity:0.97" fill="#16c0e9" d="M 367.5,465.5 C 378.321,466.495 389.321,466.828 400.5,466.5C 373.659,485.578 343.992,498.745 311.5,506C 300.424,508.254 289.424,510.087 278.5,511.5C 263.167,511.5 247.833,511.5 232.5,511.5C 200.181,508.172 169.514,499.172 140.5,484.5C 155.343,484.829 170.01,484.496 184.5,483.5C 248.019,501.96 309.019,495.96 367.5,465.5 Z"/></g>
</svg>
